#N canvas 548 23 1 1 10;
#X declare -path rj;
#X text 79 31 Sonic State Machine / using markov chains & weighted
probabilities to create musical patterns;
#X text 79 58 Dedicated to Ramon Lull;
#X obj 81 96 declare -path rj;
#X text 78 73 (c) Agoston Nagy / stc@binaura.net / 2016 / MIT License
;
#X obj 83 228 tgl 15 0 empty empty empty 17 7 0 10 -262144 -1 -1 1
1;
#X obj 83 320 s \$0-tick;
#X obj 87 526 r \$0-tick;
#X obj 87 558 c_multipass;
#X obj 160 507 loadbang;
#X obj 87 582 bng 15 250 50 0 empty empty empty 17 7 0 10 -262144 -1
-1;
#X obj 84 728 *~ 0.2;
#X obj 86 839 dac~;
#N canvas 0 23 1 1 init 0;
#X obj 97 224 soundfiler;
#X obj 97 36 loadbang;
#X msg 136 72 \; pd dsp 1 \;;
#X obj 222 84 s RJLIB;
#X msg 222 53 sf-samplerate 44100;
#X obj 96 252 table a-samp-1;
#X msg 97 128 read -resize ../sounds/a.wav a-samp-1 a-samp-2;
#X msg 107 147 read -resize ../sounds/b.wav b-samp-1 b-samp-2;
#X msg 117 166 read -resize ../sounds/c.wav c-samp-1 c-samp-2;
#X msg 127 185 read -resize ../sounds/d.wav d-samp-1 d-samp-2;
#X obj 96 271 table b-samp-1;
#X obj 96 290 table c-samp-1;
#X obj 96 310 table d-samp-1;
#X obj 192 252 table a-samp-2;
#X obj 192 271 table b-samp-2;
#X obj 192 290 table c-samp-2;
#X obj 192 310 table d-samp-2;
#X connect 1 0 6 0;
#X connect 1 0 7 0;
#X connect 1 0 8 0;
#X connect 1 0 9 0;
#X connect 1 0 2 0;
#X connect 1 0 4 0;
#X connect 4 0 3 0;
#X connect 6 0 0 0;
#X connect 7 0 0 0;
#X connect 8 0 0 0;
#X connect 9 0 0 0;
#X restore 185 96 pd init;
#X obj 514 540 r \$0-tick;
#X obj 514 562 c_multipass;
#X obj 577 514 loadbang;
#X obj 304 517 r \$0-tick;
#X obj 304 549 c_multipass;
#X obj 377 498 loadbang;
#X obj 304 573 bng 15 250 50 0 empty empty empty 17 7 0 10 -262144
-1 -1;
#X obj 303 731 *~ 0.2;
#X msg 577 538 20 60 40 80 20 40 60 80;
#X obj 756 524 r \$0-tick;
#X obj 756 545 c_multipass;
#X obj 819 502 loadbang;
#X msg 819 522 0 0 20 0 0 60 0 0;
#X msg 160 531 50 0 0 10 40 0 0 10;
#N canvas 0 23 1 1 rnd 0;
#X obj 199 126 random 50;
#X obj 199 151 + 50;
#X obj 198 181 / 100;
#X obj 200 95 inlet;
#X obj 197 242 outlet;
#X obj 196 210 * 0.2;
#X connect 0 0 1 0;
#X connect 1 0 2 0;
#X connect 2 0 5 0;
#X connect 3 0 0 0;
#X connect 5 0 4 0;
#X restore 182 706 pd rnd;
#N canvas 0 23 1 1 rnd 0;
#X obj 199 126 random 50;
#X obj 199 151 + 50;
#X obj 198 181 / 100;
#X obj 200 95 inlet;
#X obj 197 242 outlet;
#X obj 196 210 * 0.2;
#X connect 0 0 1 0;
#X connect 1 0 2 0;
#X connect 2 0 5 0;
#X connect 3 0 0 0;
#X connect 5 0 4 0;
#X restore 384 706 pd rnd;
#X msg 377 522 0 0 40 0 0 0 60 0;
#X obj 303 705 s_playtable2;
#X obj 348 730 *~ 0.2;
#X obj 85 811 catch~ out-l;
#X obj 167 811 catch~ out-r;
#X obj 84 706 s_playtable2;
#X obj 134 729 *~ 0.2;
#X obj 84 748 throw~ out-l;
#X obj 163 748 throw~ out-r;
#X obj 516 584 bng 15 250 50 0 empty empty empty 17 7 0 10 -262144
-1 -1;
#X obj 516 715 *~ 0.2;
#N canvas 0 23 1 1 rnd 0;
#X obj 198 181 / 100;
#X obj 200 95 inlet;
#X obj 197 242 outlet;
#X obj 196 210 * 0.2;
#X obj 199 126 random 80;
#X obj 199 151 + 20;
#X connect 0 0 3 0;
#X connect 1 0 4 0;
#X connect 3 0 2 0;
#X connect 4 0 5 0;
#X connect 5 0 0 0;
#X restore 595 682 pd rnd;
#X obj 517 609 t b b;
#X obj 516 682 s_playtable2;
#X obj 561 714 *~ 0.2;
#X obj 516 792 throw~ out-l;
#X obj 595 792 throw~ out-r;
#X obj 756 575 bng 15 250 50 0 empty empty empty 17 7 0 10 -262144
-1 -1;
#X obj 758 699 *~ 0.2;
#N canvas 0 23 779 552 rnd 0;
#X obj 199 126 random 50;
#X obj 199 151 + 50;
#X obj 198 181 / 100;
#X obj 200 95 inlet;
#X obj 197 242 outlet;
#X obj 196 210 * 0.2;
#X connect 0 0 1 0;
#X connect 1 0 2 0;
#X connect 2 0 5 0;
#X connect 3 0 0 0;
#X connect 5 0 4 0;
#X restore 839 677 pd rnd;
#X obj 757 600 t b b;
#X obj 758 676 s_playtable2;
#X obj 803 698 *~ 0.2;
#X obj 758 719 throw~ out-l;
#X obj 837 719 throw~ out-r;
#X msg 134 685 stop;
#X obj 135 664 del 50;
#X obj 87 607 t b b b;
#N canvas 0 23 879 648 rnd 0;
#X obj 200 95 inlet;
#X obj 199 178 outlet;
#X obj 199 151 + 20;
#X obj 199 126 random 150;
#X connect 0 0 3 0;
#X connect 2 0 1 0;
#X connect 3 0 2 0;
#X restore 168 644 pd rnd;
#X obj 305 598 t b b b;
#X msg 355 684 stop;
#X obj 355 664 del 50;
#N canvas 0 23 1 1 rnd 0;
#X obj 200 95 inlet;
#X obj 199 178 outlet;
#X obj 199 151 + 20;
#X obj 199 126 random 100;
#X connect 0 0 3 0;
#X connect 2 0 1 0;
#X connect 3 0 2 0;
#X restore 388 643 pd rnd;
#X msg 516 661 c-samp 1 \$1;
#N canvas 0 23 1 1 rnd 0;
#X obj 148 84 inlet;
#X obj 148 183 outlet;
#X obj 148 135 + 0.5;
#X obj 148 160 / 10;
#X obj 148 109 random 8;
#X connect 0 0 4 0;
#X connect 2 0 3 0;
#X connect 3 0 1 0;
#X connect 4 0 2 0;
#X restore 516 635 pd rnd;
#N canvas 0 23 359 303 rnd 0;
#X obj 148 84 inlet;
#X obj 148 183 outlet;
#X obj 148 109 random 3;
#X obj 148 160 / 2;
#X obj 148 135 + 0.5;
#X connect 0 0 2 0;
#X connect 2 0 4 0;
#X connect 3 0 1 0;
#X connect 4 0 3 0;
#X restore 758 634 pd rnd;
#X msg 758 656 b-samp 1 \$1;
#N canvas 0 22 450 300 enumerate 0;
#N canvas 473 338 450 300 count 0;
#X obj 131 154 f 0;
#X obj 163 154 + 1;
#X msg 178 122 0;
#X obj 131 183 outlet;
#X obj 131 59 inlet;
#X obj 131 96 b;
#X obj 178 58 inlet;
#X obj 178 98 b;
#X connect 0 0 1 0;
#X connect 0 0 3 0;
#X connect 1 0 0 1;
#X connect 2 0 0 1;
#X connect 4 0 5 0;
#X connect 5 0 0 0;
#X connect 6 0 7 0;
#X connect 7 0 2 0;
#X restore 233 170 pd count;
#X obj 152 128 t a b;
#X obj 152 196 list prepend;
#X obj 152 72 inlet;
#X obj 152 228 outlet;
#X obj 286 74 inlet;
#X connect 0 0 2 1;
#X connect 1 0 2 0;
#X connect 1 1 0 0;
#X connect 2 0 4 0;
#X connect 3 0 1 0;
#X connect 5 0 0 1;
#X restore 845 252 pd enumerate;
#X obj 845 210 t b b;
#X msg 845 189 bang;
#X obj 788 297 hradio 15 1 0 4 empty empty empty 0 -8 0 10 -262144
-1 -1 3;
#X obj 788 272 c_markov 4;
#X obj 757 105 r \$0-tick;
#X obj 757 126 bng 15 250 50 0 empty empty empty 17 7 0 10 -262144
-1 -1;
#X floatatom 789 170 0 0 0 0 - - -;
#X obj 788 148 + 1;
#X obj 746 145 float;
#X obj 789 211 == 0;
#X obj 844 165 loadbang;
#X obj 788 231 sel 1;
#X obj 788 317 s \$0-markov;
#X obj 161 116 r \$0-markov;
#X obj 134 243 t b f;
#X floatatom 159 272 5 0 0 0 - - -, f 5;
#X obj 161 137 sel 0 1 2 3;
#X obj 307 474 throw~ out-l;
#X obj 388 474 throw~ out-r;
#X obj 339 249 osc~;
#X obj 799 252 bng 15 250 50 0 empty empty empty 17 7 0 10 -262144
-1 -1;
#X msg 200 205 7;
#X obj 313 445 e_platereverb lull;
#X obj 454 378 loadbang;
#X obj 103 270 del 1;
#X obj 397 251 osc~;
#X obj 789 191 % 120;
#N canvas 0 23 359 303 rnd 0;
#X obj 148 84 inlet;
#X obj 148 183 outlet;
#X obj 148 109 random 3;
#X obj 148 160 / 2;
#X obj 148 135 + 0.5;
#X connect 0 0 2 0;
#X connect 2 0 4 0;
#X connect 3 0 1 0;
#X connect 4 0 3 0;
#X restore 80 647 pd rnd;
#X msg 56 685 a-samp 1 \$1;
#N canvas 0 23 1 1 rnd 0;
#X obj 148 84 inlet;
#X obj 148 183 outlet;
#X obj 148 109 random 3;
#X obj 148 135 + 0.5;
#X obj 148 160 / 10;
#X connect 0 0 2 0;
#X connect 2 0 3 0;
#X connect 3 0 4 0;
#X connect 4 0 1 0;
#X restore 298 654 pd rnd;
#X msg 274 683 d-samp 1 \$1;
#X obj 300 830 s~ sn-l;
#X obj 372 830 s~ sn-r;
#X obj 391 396 r~ sn-r;
#X obj 258 397 r~ sn-l;
#X msg 606 733 freq 0.8 \, mod 1.3;
#X obj 606 713 loadbang;
#X obj 516 762 e_chorus mychorus;
#X obj 629 761 e_chorus mychorus;
#X msg 234 205 1;
#X obj 397 227 + 0.1;
#X msg 328 182 30;
#X msg 359 183 32;
#X msg 425 184 37;
#X obj 339 209 mtof;
#X obj 447 242 osc~;
#X obj 504 184 * 100;
#X obj 504 164 + 4;
#X obj 505 220 + 0.01;
#X msg 392 183 40;
#X obj 372 807 *~ 0.5;
#X obj 306 809 *~ 0.5;
#X obj 328 780 throw~ out-l;
#X obj 381 756 throw~ out-r;
#N canvas 64 361 1439 519 viz 1;
#X obj 98 131 hradio 28 1 0 1 empty v-pos empty 0 -8 0 10 -262144 -1
-1 0;
#X obj 663 158 r \$0-v-a;
#N canvas 14 206 606 448 RGB_____________ 0;
#X obj 97 56 inlet;
#X obj 262 53 inlet;
#X obj 339 55 inlet;
#X obj 405 56 inlet;
#X obj 97 270 bang;
#X msg 77 295 0;
#X msg 104 295 1;
#X obj 146 268 bang;
#X msg 132 295 0;
#X msg 160 295 1;
#X obj 265 313 spigot;
#X obj 312 313 spigot;
#X obj 249 385 outlet;
#X text 93 33 select;
#X text 267 28 red;
#X text 337 30 green;
#X text 409 30 blue;
#X obj 405 102 t b f;
#X obj 339 160 +;
#X obj 339 185 t b f;
#X obj 339 216 +;
#X obj 296 385 outlet;
#X obj 28 180 loadbang;
#X obj 296 361 f;
#X obj 249 361 f;
#X obj 262 79 * -65536;
#X obj 339 80 * -256;
#X obj 405 80 * -1;
#X obj 339 247 - 1;
#X obj 97 135 route back label bang;
#X obj 235 168 t b b b;
#X connect 0 0 29 0;
#X connect 1 0 25 0;
#X connect 2 0 26 0;
#X connect 3 0 27 0;
#X connect 4 0 5 0;
#X connect 4 0 6 0;
#X connect 5 0 11 1;
#X connect 6 0 10 1;
#X connect 7 0 8 0;
#X connect 7 0 9 0;
#X connect 8 0 10 1;
#X connect 9 0 11 1;
#X connect 10 0 24 1;
#X connect 11 0 23 1;
#X connect 17 0 18 0;
#X connect 17 1 18 1;
#X connect 18 0 19 0;
#X connect 19 0 20 0;
#X connect 19 1 20 1;
#X connect 20 0 28 0;
#X connect 22 0 6 0;
#X connect 23 0 21 0;
#X connect 24 0 12 0;
#X connect 25 0 20 0;
#X connect 26 0 18 0;
#X connect 27 0 17 0;
#X connect 28 0 11 0;
#X connect 28 0 10 0;
#X connect 29 0 4 0;
#X connect 29 1 7 0;
#X connect 29 2 30 0;
#X connect 30 0 24 0;
#X connect 30 1 23 0;
#X connect 30 2 28 0;
#X restore 581 297 pd RGB_____________;
#X floatatom 616 279 3 0 255 0 - - -, f 3;
#X obj 581 316 pack 0 0 0;
#X obj 588 123 bng 15 250 50 0 empty empty empty 17 7 0 10 -262144
-1 -1;
#X msg 581 336 \; v-a-canvas color \$1 \$2 \$3;
#X obj 589 97 metro 20;
#X obj 588 77 tgl 15 0 empty empty empty 17 7 0 10 -262144 -1 -1 1
1;
#X obj 588 49 loadbang;
#X floatatom 636 242 0 0 0 0 - - -;
#X obj 636 198 float;
#X obj 636 262 moses 255;
#X msg 663 178 0;
#N canvas 14 206 606 448 RGB_____________ 0;
#X obj 97 56 inlet;
#X obj 262 53 inlet;
#X obj 339 55 inlet;
#X obj 405 56 inlet;
#X obj 97 270 bang;
#X msg 77 295 0;
#X msg 104 295 1;
#X obj 146 268 bang;
#X msg 132 295 0;
#X msg 160 295 1;
#X obj 265 313 spigot;
#X obj 312 313 spigot;
#X obj 249 385 outlet;
#X text 93 33 select;
#X text 267 28 red;
#X text 337 30 green;
#X text 409 30 blue;
#X obj 405 102 t b f;
#X obj 339 160 +;
#X obj 339 185 t b f;
#X obj 339 216 +;
#X obj 296 385 outlet;
#X obj 28 180 loadbang;
#X obj 296 361 f;
#X obj 249 361 f;
#X obj 262 79 * -65536;
#X obj 339 80 * -256;
#X obj 405 80 * -1;
#X obj 339 247 - 1;
#X obj 97 135 route back label bang;
#X obj 235 168 t b b b;
#X connect 0 0 29 0;
#X connect 1 0 25 0;
#X connect 2 0 26 0;
#X connect 3 0 27 0;
#X connect 4 0 5 0;
#X connect 4 0 6 0;
#X connect 5 0 11 1;
#X connect 6 0 10 1;
#X connect 7 0 8 0;
#X connect 7 0 9 0;
#X connect 8 0 10 1;
#X connect 9 0 11 1;
#X connect 10 0 24 1;
#X connect 11 0 23 1;
#X connect 17 0 18 0;
#X connect 17 1 18 1;
#X connect 18 0 19 0;
#X connect 19 0 20 0;
#X connect 19 1 20 1;
#X connect 20 0 28 0;
#X connect 22 0 6 0;
#X connect 23 0 21 0;
#X connect 24 0 12 0;
#X connect 25 0 20 0;
#X connect 26 0 18 0;
#X connect 27 0 17 0;
#X connect 28 0 11 0;
#X connect 28 0 10 0;
#X connect 29 0 4 0;
#X connect 29 1 7 0;
#X connect 29 2 30 0;
#X connect 30 0 24 0;
#X connect 30 1 23 0;
#X connect 30 2 28 0;
#X restore 752 298 pd RGB_____________;
#X floatatom 787 280 3 0 255 0 - - -, f 3;
#X obj 752 317 pack 0 0 0;
#X floatatom 807 243 0 0 0 0 - - -;
#X obj 807 199 float;
#X obj 807 263 moses 255;
#X msg 834 179 0;
#N canvas 14 206 606 448 RGB_____________ 0;
#X obj 97 56 inlet;
#X obj 262 53 inlet;
#X obj 339 55 inlet;
#X obj 405 56 inlet;
#X obj 97 270 bang;
#X msg 77 295 0;
#X msg 104 295 1;
#X obj 146 268 bang;
#X msg 132 295 0;
#X msg 160 295 1;
#X obj 265 313 spigot;
#X obj 312 313 spigot;
#X obj 249 385 outlet;
#X text 93 33 select;
#X text 267 28 red;
#X text 337 30 green;
#X text 409 30 blue;
#X obj 405 102 t b f;
#X obj 339 160 +;
#X obj 339 185 t b f;
#X obj 339 216 +;
#X obj 296 385 outlet;
#X obj 28 180 loadbang;
#X obj 296 361 f;
#X obj 249 361 f;
#X obj 262 79 * -65536;
#X obj 339 80 * -256;
#X obj 405 80 * -1;
#X obj 339 247 - 1;
#X obj 97 135 route back label bang;
#X obj 235 168 t b b b;
#X connect 0 0 29 0;
#X connect 1 0 25 0;
#X connect 2 0 26 0;
#X connect 3 0 27 0;
#X connect 4 0 5 0;
#X connect 4 0 6 0;
#X connect 5 0 11 1;
#X connect 6 0 10 1;
#X connect 7 0 8 0;
#X connect 7 0 9 0;
#X connect 8 0 10 1;
#X connect 9 0 11 1;
#X connect 10 0 24 1;
#X connect 11 0 23 1;
#X connect 17 0 18 0;
#X connect 17 1 18 1;
#X connect 18 0 19 0;
#X connect 19 0 20 0;
#X connect 19 1 20 1;
#X connect 20 0 28 0;
#X connect 22 0 6 0;
#X connect 23 0 21 0;
#X connect 24 0 12 0;
#X connect 25 0 20 0;
#X connect 26 0 18 0;
#X connect 27 0 17 0;
#X connect 28 0 11 0;
#X connect 28 0 10 0;
#X connect 29 0 4 0;
#X connect 29 1 7 0;
#X connect 29 2 30 0;
#X connect 30 0 24 0;
#X connect 30 1 23 0;
#X connect 30 2 28 0;
#X restore 921 296 pd RGB_____________;
#X floatatom 956 278 3 0 255 0 - - -, f 3;
#X obj 921 315 pack 0 0 0;
#X floatatom 976 241 0 0 0 0 - - -;
#X obj 976 197 float;
#X obj 976 261 moses 255;
#X msg 1003 177 0;
#N canvas 14 206 606 448 RGB_____________ 0;
#X obj 97 56 inlet;
#X obj 262 53 inlet;
#X obj 339 55 inlet;
#X obj 405 56 inlet;
#X obj 97 270 bang;
#X msg 77 295 0;
#X msg 104 295 1;
#X obj 146 268 bang;
#X msg 132 295 0;
#X msg 160 295 1;
#X obj 265 313 spigot;
#X obj 312 313 spigot;
#X obj 249 385 outlet;
#X text 93 33 select;
#X text 267 28 red;
#X text 337 30 green;
#X text 409 30 blue;
#X obj 405 102 t b f;
#X obj 339 160 +;
#X obj 339 185 t b f;
#X obj 339 216 +;
#X obj 296 385 outlet;
#X obj 28 180 loadbang;
#X obj 296 361 f;
#X obj 249 361 f;
#X obj 262 79 * -65536;
#X obj 339 80 * -256;
#X obj 405 80 * -1;
#X obj 339 247 - 1;
#X obj 97 135 route back label bang;
#X obj 235 168 t b b b;
#X connect 0 0 29 0;
#X connect 1 0 25 0;
#X connect 2 0 26 0;
#X connect 3 0 27 0;
#X connect 4 0 5 0;
#X connect 4 0 6 0;
#X connect 5 0 11 1;
#X connect 6 0 10 1;
#X connect 7 0 8 0;
#X connect 7 0 9 0;
#X connect 8 0 10 1;
#X connect 9 0 11 1;
#X connect 10 0 24 1;
#X connect 11 0 23 1;
#X connect 17 0 18 0;
#X connect 17 1 18 1;
#X connect 18 0 19 0;
#X connect 19 0 20 0;
#X connect 19 1 20 1;
#X connect 20 0 28 0;
#X connect 22 0 6 0;
#X connect 23 0 21 0;
#X connect 24 0 12 0;
#X connect 25 0 20 0;
#X connect 26 0 18 0;
#X connect 27 0 17 0;
#X connect 28 0 11 0;
#X connect 28 0 10 0;
#X connect 29 0 4 0;
#X connect 29 1 7 0;
#X connect 29 2 30 0;
#X connect 30 0 24 0;
#X connect 30 1 23 0;
#X connect 30 2 28 0;
#X restore 1092 298 pd RGB_____________;
#X floatatom 1127 280 3 0 255 0 - - -, f 3;
#X obj 1092 317 pack 0 0 0;
#X floatatom 1147 243 0 0 0 0 - - -;
#X obj 1147 199 float;
#X obj 1147 263 moses 255;
#X msg 1174 179 0;
#X obj 834 159 r \$0-v-b;
#X obj 1003 157 r \$0-v-c;
#X obj 1174 159 r \$0-v-d;
#X msg 752 337 \; v-b-canvas color \$1 \$2 \$3;
#X msg 921 335 \; v-c-canvas color \$1 \$2 \$3;
#X msg 1092 337 \; v-d-canvas color \$1 \$2 \$3;
#X obj 98 185 cnv 15 241 20 empty v-b-canvas empty 20 12 0 14 -257983
-262144 0;
#X obj 98 206 cnv 15 241 20 empty v-c-canvas empty 20 12 0 14 -257983
-262144 0;
#X obj 98 227 cnv 15 241 20 empty v-d-canvas empty 20 12 0 14 -257983
-262144 0;
#X obj 98 164 cnv 15 241 20 empty v-a-canvas empty 20 12 0 14 -128992
-262144 0;
#X text 104 165 50%;
#X text 188 165 10%;
#X text 216 165 40%;
#X text 294 167 10%;
#X text 160 229 40%;
#X text 272 230 60%;
#X text 101 208 20%;
#X text 134 208 60%;
#X text 161 209 40%;
#X text 187 209 80%;
#X text 215 208 20%;
#X text 245 208 40%;
#X text 272 208 60%;
#X text 297 208 80%;
#X text 161 187 20%;
#X text 244 188 60%;
#X obj 776 43 r \$0-radio-size;
#X msg 775 70 \; v-pos number \$1;
#X obj 412 132 vradio 29 1 0 4 empty v-markov empty 0 -8 0 10 -262144
-1 -1 3;
#X text 455 195 0 1 1 1;
#X text 454 226 1 0 0 0;
#X text 410 108 state;
#X text 97 108 sequence position;
#X obj 636 217 + 25;
#X obj 807 218 + 25;
#X obj 976 216 + 25;
#X obj 1147 218 + 25;
#X text 348 166 < samp A;
#X text 348 186 < samp B;
#X text 348 206 < samp C;
#X text 348 228 < samp D;
#X text 455 164 1 0 1 0;
#X text 455 135 0 1 1 0;
#X connect 1 0 13 0;
#X connect 2 0 4 0;
#X connect 2 1 4 2;
#X connect 3 0 2 1;
#X connect 3 0 2 2;
#X connect 3 0 2 3;
#X connect 4 0 6 0;
#X connect 5 0 2 0;
#X connect 5 0 11 0;
#X connect 5 0 18 0;
#X connect 5 0 25 0;
#X connect 5 0 32 0;
#X connect 5 0 14 0;
#X connect 5 0 21 0;
#X connect 5 0 28 0;
#X connect 7 0 5 0;
#X connect 8 0 7 0;
#X connect 9 0 8 0;
#X connect 10 0 12 0;
#X connect 11 0 68 0;
#X connect 12 0 3 0;
#X connect 13 0 11 1;
#X connect 14 0 16 0;
#X connect 14 1 16 2;
#X connect 15 0 14 1;
#X connect 15 0 14 2;
#X connect 15 0 14 3;
#X connect 16 0 38 0;
#X connect 17 0 19 0;
#X connect 18 0 69 0;
#X connect 19 0 15 0;
#X connect 20 0 18 1;
#X connect 21 0 23 0;
#X connect 21 1 23 2;
#X connect 22 0 21 1;
#X connect 22 0 21 2;
#X connect 22 0 21 3;
#X connect 23 0 39 0;
#X connect 24 0 26 0;
#X connect 25 0 70 0;
#X connect 26 0 22 0;
#X connect 27 0 25 1;
#X connect 28 0 30 0;
#X connect 28 1 30 2;
#X connect 29 0 28 1;
#X connect 29 0 28 2;
#X connect 29 0 28 3;
#X connect 30 0 40 0;
#X connect 31 0 33 0;
#X connect 32 0 71 0;
#X connect 33 0 29 0;
#X connect 34 0 32 1;
#X connect 35 0 20 0;
#X connect 36 0 27 0;
#X connect 37 0 34 0;
#X connect 61 0 62 0;
#X connect 68 0 10 0;
#X connect 68 0 11 1;
#X connect 69 0 17 0;
#X connect 69 0 18 1;
#X connect 70 0 24 0;
#X connect 70 0 25 1;
#X connect 71 0 31 0;
#X connect 71 0 32 1;
#X restore 240 96 pd viz;
#X obj 109 583 s \$0-v-a;
#X obj 537 584 s \$0-v-c;
#X obj 326 573 s \$0-v-d;
#X obj 775 574 s \$0-v-b;
#X obj 176 244 s \$0-radio-size;
#X obj 147 321 s v-pos;
#X obj 581 237 osc~;
#X obj 623 122 * 100;
#X obj 622 101 + 4;
#X obj 639 215 + 0.01;
#X obj 623 143 ftom;
#X obj 623 163 - 4;
#X obj 622 184 mtof;
#X obj 335 298 *~;
#X obj 400 297 *~;
#X obj 579 286 *~;
#X obj 445 270 *~ 0.1;
#X obj 579 265 *~ 0.1;
#X obj 352 335 e_phaser ph0;
#X obj 378 357 e_phaser ph1;
#X obj 436 314 loadbang;
#X obj 337 277 *~ 0.15;
#X obj 399 273 *~ 0.15;
#X obj 505 244 phasor~;
#X obj 639 239 phasor~;
#X obj 507 266 *~ 0.05;
#X obj 641 261 *~ 0.05;
#X obj 83 300 c_multimetro 4 120;
#X msg 454 398 dry 0.33 \, decay_diffusion2 0.68 \, decay_diffusion1
0.74 \, input_diffusion2 0.779 \, excursion 0 \, input_diffusion1 0.685
\, decay 0.88 \, damping 4637 \, bandwidth 10000 \, predelay 0 \,;
#X msg 436 334 freq 0.07 \, depth 0.8;
#X msg 457 354 freq 0.04 \, depth 0.8;
#X obj 861 317 s v-markov;
#X msg 167 206 8;
#X msg 134 205 6;
#X msg 845 231 0 1 1 0 \, 1 0 1 0 \, 0 1 1 1 \, 1 0 0 0;
#X connect 4 0 149 0;
#X connect 6 0 7 0;
#X connect 7 0 9 0;
#X connect 8 0 26 0;
#X connect 9 0 56 0;
#X connect 9 0 122 0;
#X connect 10 0 36 0;
#X connect 13 0 14 0;
#X connect 14 0 38 0;
#X connect 15 0 21 0;
#X connect 16 0 17 0;
#X connect 17 0 19 0;
#X connect 18 0 29 0;
#X connect 19 0 58 0;
#X connect 19 0 124 0;
#X connect 20 0 118 0;
#X connect 20 0 119 0;
#X connect 21 0 14 1;
#X connect 22 0 23 0;
#X connect 23 0 46 0;
#X connect 24 0 25 0;
#X connect 25 0 23 1;
#X connect 26 0 7 1;
#X connect 27 0 10 1;
#X connect 27 0 35 1;
#X connect 28 0 20 1;
#X connect 28 0 31 1;
#X connect 29 0 17 1;
#X connect 30 0 20 0;
#X connect 30 0 31 0;
#X connect 31 0 117 0;
#X connect 31 0 120 0;
#X connect 32 0 11 0;
#X connect 33 0 11 1;
#X connect 34 0 10 0;
#X connect 34 0 35 0;
#X connect 35 0 37 0;
#X connect 38 0 41 0;
#X connect 38 0 123 0;
#X connect 39 0 104 0;
#X connect 40 0 39 1;
#X connect 40 0 43 1;
#X connect 41 0 63 0;
#X connect 41 1 40 0;
#X connect 42 0 39 0;
#X connect 42 1 43 0;
#X connect 43 0 105 0;
#X connect 46 0 49 0;
#X connect 46 0 125 0;
#X connect 47 0 52 0;
#X connect 48 0 47 1;
#X connect 48 0 51 1;
#X connect 49 0 64 0;
#X connect 49 1 48 0;
#X connect 50 0 47 0;
#X connect 50 1 51 0;
#X connect 51 0 53 0;
#X connect 54 0 34 1;
#X connect 55 0 54 0;
#X connect 56 0 55 0;
#X connect 56 0 94 0;
#X connect 56 1 57 0;
#X connect 56 2 27 0;
#X connect 57 0 55 1;
#X connect 58 0 60 0;
#X connect 58 0 96 0;
#X connect 58 1 61 0;
#X connect 58 2 28 0;
#X connect 59 0 30 1;
#X connect 60 0 59 0;
#X connect 61 0 60 1;
#X connect 62 0 42 0;
#X connect 63 0 62 0;
#X connect 64 0 65 0;
#X connect 65 0 50 0;
#X connect 66 0 70 1;
#X connect 67 0 156 0;
#X connect 67 1 66 1;
#X connect 68 0 67 0;
#X connect 69 0 79 0;
#X connect 69 0 153 0;
#X connect 70 0 69 0;
#X connect 71 0 72 0;
#X connect 72 0 75 0;
#X connect 73 0 93 0;
#X connect 74 0 73 0;
#X connect 74 0 75 1;
#X connect 75 0 74 0;
#X connect 76 0 78 0;
#X connect 77 0 68 0;
#X connect 78 0 87 0;
#X connect 80 0 83 0;
#X connect 80 0 114 0;
#X connect 80 0 130 0;
#X connect 81 0 91 0;
#X connect 81 1 82 0;
#X connect 82 0 149 1;
#X connect 83 0 155 0;
#X connect 83 0 108 0;
#X connect 83 1 154 0;
#X connect 83 1 109 0;
#X connect 83 2 88 0;
#X connect 83 2 116 0;
#X connect 83 3 106 0;
#X connect 83 3 110 0;
#X connect 86 0 143 0;
#X connect 87 0 70 0;
#X connect 88 0 81 0;
#X connect 88 0 126 0;
#X connect 89 0 84 0;
#X connect 89 1 85 0;
#X connect 90 0 150 0;
#X connect 91 0 149 0;
#X connect 92 0 144 0;
#X connect 93 0 76 0;
#X connect 94 0 95 0;
#X connect 95 0 34 0;
#X connect 96 0 97 0;
#X connect 97 0 30 0;
#X connect 100 0 89 1;
#X connect 101 0 89 0;
#X connect 102 0 104 1;
#X connect 102 0 105 1;
#X connect 103 0 102 0;
#X connect 104 0 44 0;
#X connect 105 0 45 0;
#X connect 106 0 81 0;
#X connect 106 0 126 0;
#X connect 107 0 92 0;
#X connect 108 0 111 0;
#X connect 109 0 111 0;
#X connect 110 0 111 0;
#X connect 111 0 86 0;
#X connect 111 0 107 0;
#X connect 112 0 138 0;
#X connect 113 0 112 0;
#X connect 113 0 115 0;
#X connect 114 0 113 0;
#X connect 115 0 145 0;
#X connect 116 0 111 0;
#X connect 117 0 99 0;
#X connect 118 0 98 0;
#X connect 128 0 139 0;
#X connect 129 0 132 0;
#X connect 130 0 129 0;
#X connect 131 0 146 0;
#X connect 132 0 133 0;
#X connect 133 0 134 0;
#X connect 134 0 131 0;
#X connect 134 0 128 0;
#X connect 135 0 140 0;
#X connect 135 0 141 0;
#X connect 136 0 141 0;
#X connect 137 0 140 0;
#X connect 138 0 136 0;
#X connect 139 0 137 0;
#X connect 140 0 89 1;
#X connect 141 0 89 0;
#X connect 142 0 151 0;
#X connect 142 0 152 0;
#X connect 143 0 135 0;
#X connect 144 0 135 1;
#X connect 145 0 147 0;
#X connect 146 0 148 0;
#X connect 147 0 136 1;
#X connect 148 0 137 1;
#X connect 149 0 5 0;
#X connect 149 0 127 0;
#X connect 150 0 89 2;
#X connect 151 0 140 1;
#X connect 152 0 141 1;
#X connect 154 0 81 0;
#X connect 154 0 126 0;
#X connect 155 0 81 0;
#X connect 155 0 126 0;
#X connect 156 0 66 0;
